<svg id="svg" version="1.1" xmlns="http://www.w3.org/2000/svg" xmlns:xlink="http://www.w3.org/1999/xlink" width="400" height="300.1666666666667" viewBox="0, 0, 400,300.1666666666667"><g id="svgg"><path id="path0" d="M229.725 68.339 C 211.003 69.429,194.897 82.317,194.219 96.750 C 193.583 110.298,210.180 117.686,229.412 112.415 C 234.217 111.098,243.167 106.735,243.167 105.709 C 243.167 105.527,236.113 98.500,235.930 98.500 C 235.848 98.500,235.072 98.959,234.206 99.520 C 223.082 106.726,209.740 103.936,210.204 94.500 C 210.845 81.461,231.318 73.295,239.871 82.666 L 240.942 83.840 246.929 80.312 C 250.222 78.372,252.951 76.755,252.993 76.719 C 253.164 76.571,252.385 75.436,251.432 74.444 C 247.071 69.905,239.481 67.771,229.725 68.339 M286.750 68.338 C 267.430 69.471,250.957 82.805,250.930 97.333 C 250.908 109.841,265.199 116.746,283.500 113.069 C 296.641 110.428,307.648 102.225,311.512 92.192 C 317.121 77.626,306.290 67.193,286.750 68.338 M319.083 69.382 C 330.532 75.339,334.701 83.600,330.503 92.013 C 327.016 99.003,319.625 105.264,305.195 113.453 C 303.939 114.166,304.518 114.036,308.279 112.761 C 352.508 97.762,362.041 83.529,334.833 73.117 C 330.728 71.546,324.867 69.848,319.778 68.756 C 316.930 68.145,316.848 68.219,319.083 69.382 M51.609 73.958 C 50.721 76.594,49.996 78.844,49.997 78.958 C 49.999 79.122,51.749 79.167,58.184 79.167 C 64.663 79.167,66.353 79.210,66.290 79.375 C 66.176 79.676,62.170 91.493,58.239 103.125 L 54.846 113.167 62.553 113.167 L 70.261 113.167 76.005 96.171 L 81.750 79.176 89.989 79.129 L 98.227 79.083 99.855 74.333 C 100.750 71.721,101.486 69.490,101.491 69.375 C 101.498 69.209,96.566 69.167,77.362 69.167 L 53.224 69.167 51.609 73.958 M99.679 90.936 C 95.625 102.910,92.268 112.810,92.219 112.937 C 92.144 113.133,95.393 113.162,113.834 113.126 L 135.537 113.083 137.094 108.532 C 137.950 106.029,138.697 103.835,138.753 103.657 C 138.854 103.338,138.641 103.333,124.845 103.333 C 117.138 103.333,110.832 103.277,110.830 103.208 C 110.828 103.140,111.410 101.377,112.122 99.292 L 113.417 95.501 125.361 95.500 L 137.306 95.500 138.819 90.958 C 139.652 88.460,140.333 86.360,140.333 86.292 C 140.333 86.223,135.008 86.167,128.500 86.167 C 121.992 86.167,116.667 86.110,116.667 86.042 C 116.667 85.973,117.198 84.323,117.847 82.375 L 119.028 78.833 132.582 78.833 L 146.135 78.833 146.413 78.042 C 147.244 75.674,149.333 69.423,149.333 69.305 C 149.333 69.229,139.820 69.167,128.192 69.167 L 107.050 69.167 99.679 90.936 M158.580 69.375 C 158.102 70.692,143.833 112.930,143.833 113.030 C 143.833 113.105,153.052 113.167,164.318 113.167 L 184.803 113.167 185.218 111.958 C 186.226 109.021,188.167 103.272,188.167 103.222 C 188.167 103.192,182.429 103.167,175.417 103.167 C 167.577 103.167,162.667 103.106,162.667 103.010 C 162.667 102.924,165.217 95.325,168.333 86.122 C 171.450 76.920,174.000 69.341,174.000 69.279 C 174.000 69.054,158.663 69.149,158.580 69.375 M290.083 79.159 C 303.144 82.522,296.372 100.579,281.048 103.251 C 273.175 104.624,267.172 101.300,266.873 95.402 C 266.373 85.540,279.416 76.411,290.083 79.159 M187.000 127.278 C 178.145 128.157,172.081 132.520,170.128 139.417 L 169.750 140.750 169.750 157.167 L 169.750 173.583 170.134 175.322 C 172.236 184.829,179.095 190.434,189.250 190.943 C 200.349 191.499,208.848 185.141,210.562 175.000 C 212.519 163.417,207.556 153.927,198.148 151.264 C 192.745 149.734,186.349 150.598,183.151 153.289 C 182.323 153.986,182.297 153.827,182.369 148.476 C 182.431 143.844,182.455 143.531,182.818 142.609 C 185.582 135.603,196.311 137.170,196.639 144.629 C 196.742 146.973,196.343 146.833,202.931 146.833 C 209.686 146.833,209.500 146.908,209.500 144.219 C 209.500 132.916,200.263 125.961,187.000 127.278 M235.667 127.340 C 225.507 128.584,219.090 134.717,217.988 144.237 C 217.611 147.494,217.876 174.329,218.304 176.210 C 220.589 186.258,228.566 191.736,240.250 191.279 C 250.856 190.865,257.977 185.389,259.920 176.152 C 260.600 172.918,260.742 146.287,260.096 143.000 C 257.935 131.998,248.262 125.798,235.667 127.340 M122.837 128.046 C 122.061 128.441,122.005 128.791,122.002 133.267 C 122.000 137.734,122.085 138.333,122.766 138.644 C 123.063 138.779,126.229 138.833,133.841 138.833 C 142.262 138.833,144.498 138.877,144.490 139.042 C 144.485 139.156,141.367 141.950,137.561 145.250 C 128.329 153.255,128.959 151.822,132.546 156.667 C 135.958 161.275,135.726 161.151,138.362 159.775 C 140.893 158.453,142.479 158.356,144.724 159.383 C 150.911 162.216,151.014 176.629,144.867 179.388 C 139.800 181.662,135.115 178.896,133.976 172.957 C 133.796 172.018,133.613 171.079,133.570 170.871 C 133.355 169.829,133.378 169.833,127.242 169.833 L 121.652 169.833 121.242 170.242 C 120.148 171.336,121.565 177.970,123.629 181.417 C 127.357 187.643,133.631 191.000,141.539 191.000 C 154.281 191.000,162.266 182.794,162.218 169.750 C 162.181 159.737,157.475 153.010,149.280 151.255 C 148.590 151.107,148.436 151.269,154.823 145.457 C 162.315 138.639,161.407 140.205,161.465 134.005 L 161.514 128.868 161.105 128.392 L 160.696 127.917 141.973 127.876 C 127.165 127.844,123.164 127.880,122.837 128.046 M241.576 138.422 C 244.545 139.195,246.683 141.433,247.413 144.529 C 247.852 146.391,247.782 172.497,247.333 174.251 C 245.276 182.292,233.453 182.537,230.953 174.590 C 230.583 173.417,230.583 173.412,230.583 159.250 L 230.583 145.083 230.957 143.897 C 232.327 139.540,236.872 137.197,241.576 138.422 M192.423 161.424 C 200.715 163.569,199.947 178.612,191.483 179.848 C 185.893 180.665,182.258 176.631,182.543 169.928 C 182.814 163.534,186.921 160.000,192.423 161.424 " stroke="none" fill="#fcfcfc" fill-rule="evenodd"></path><path id="path1" d="M269.643 152.586 C 268.954 152.960,268.833 153.609,268.833 156.929 C 268.833 160.721,268.859 160.771,271.031 161.234 C 278.267 162.775,287.907 167.957,292.516 172.783 C 297.313 177.807,297.729 182.327,293.865 187.436 C 285.275 198.794,263.164 205.500,226.000 208.020 C 224.487 208.123,218.000 208.234,211.583 208.267 C 198.831 208.333,199.274 208.308,198.937 208.961 C 198.609 209.594,198.377 215.133,198.650 215.792 C 199.057 216.775,198.755 216.745,208.833 216.806 C 247.099 217.038,278.845 210.655,293.181 199.846 C 310.392 186.870,308.796 171.247,289.060 159.490 C 282.182 155.393,271.481 151.588,269.643 152.586 M112.000 153.016 C 98.678 156.443,85.955 165.169,82.093 173.527 C 79.284 179.607,80.207 186.498,84.621 192.417 C 92.587 203.096,108.785 210.115,134.583 214.067 C 144.554 215.594,159.544 216.833,168.042 216.833 L 169.839 216.833 165.961 221.256 C 160.991 226.925,161.001 226.900,163.046 228.690 C 166.642 231.838,166.636 231.834,167.291 231.830 C 168.161 231.824,167.774 232.227,176.565 222.195 C 184.476 213.168,184.500 213.138,184.500 212.402 C 184.500 211.608,185.099 212.321,170.115 195.250 C 167.403 192.160,167.552 192.156,163.859 195.401 C 160.859 198.037,160.743 197.597,166.023 203.607 L 170.177 208.333 168.547 208.332 C 148.998 208.313,123.245 204.314,109.333 199.138 C 95.706 194.067,87.447 185.698,89.248 178.784 C 90.934 172.313,101.997 164.453,113.666 161.435 C 116.752 160.637,116.572 160.916,116.634 156.853 L 116.686 153.548 116.245 153.024 C 115.664 152.334,114.657 152.332,112.000 153.016 " stroke="none" fill="#04acec" fill-rule="evenodd"></path><path id="path2" d="" stroke="none" fill="#100d4f4" fill-rule="evenodd"></path><path id="path3" d="" stroke="none" fill="#100d4f4" fill-rule="evenodd"></path><path id="path4" d="" stroke="none" fill="#100d4f4" fill-rule="evenodd"></path></g></svg>